HIERARCHY
ROOT Hips
{
 OFFSET 0.000000 0.000000 0.000000
 CHANNELS 6 Xposition Yposition Zposition Yrotation Xrotation Zrotation
 JOINT Chest
 {
  OFFSET 0.000000 9.588913 -0.003946
  CHANNELS 3 Yrotation Xrotation Zrotation
  JOINT Chest2
  {
   OFFSET 0.000000 9.541882 0.008053
   CHANNELS 3 Yrotation Xrotation Zrotation
   JOINT Chest3
   {
    OFFSET 0.000000 9.501360 0.000000
    CHANNELS 3 Yrotation Xrotation Zrotation
    JOINT Chest4
    {
     OFFSET 0.000000 9.491660 0.000000
     CHANNELS 3 Yrotation Xrotation Zrotation
     JOINT Neck
     {
      OFFSET 0.000000 14.331917 0.000000
      CHANNELS 3 Yrotation Xrotation Zrotation
      JOINT Head
      {
       OFFSET 0.000000 8.884799 0.017034
       CHANNELS 3 Yrotation Xrotation Zrotation
       End Site
       {
        OFFSET 0.000000 16.896195 0.008993
       }
      }
     }
     JOINT RightCollar
     {
      OFFSET -2.923010 9.499495 0.000000
      CHANNELS 3 Yrotation Xrotation Zrotation
      JOINT RightShoulder
      {
       OFFSET -13.795216 0.000000 0.000000
       CHANNELS 3 Yrotation Xrotation Zrotation
       JOINT RightElbow
       {
        OFFSET -30.272209 0.000000 0.000000
        CHANNELS 3 Yrotation Xrotation Zrotation
        JOINT RightWrist
        {
         OFFSET -24.478199 0.000000 0.000000
         CHANNELS 3 Yrotation Xrotation Zrotation
         End Site
         {
          OFFSET -18.090752 0.000000 0.000000
         }
        }
       }
      }
     }
     JOINT LeftCollar
     {
      OFFSET 2.923010 9.499495 0.000000
      CHANNELS 3 Yrotation Xrotation Zrotation
      JOINT LeftShoulder
      {
       OFFSET 13.795216 0.000000 0.000000
       CHANNELS 3 Yrotation Xrotation Zrotation
       JOINT LeftElbow
       {
        OFFSET 30.272209 0.000000 0.000000
        CHANNELS 3 Yrotation Xrotation Zrotation
        JOINT LeftWrist
        {
         OFFSET 24.478199 0.000000 0.000000
         CHANNELS 3 Yrotation Xrotation Zrotation
         End Site
         {
          OFFSET 18.090752 0.000000 0.000000
         }
        }
       }
      }
     }
    }
   }
  }
 }
 JOINT RightHip
 {
  OFFSET -7.826875 0.019532 0.001973
  CHANNELS 3 Yrotation Xrotation Zrotation
  JOINT RightKnee
  {
   OFFSET 0.000000 -40.546152 -0.001885
   CHANNELS 3 Yrotation Xrotation Zrotation
   JOINT RightAnkle
   {
    OFFSET 0.000000 -39.417092 -0.003189
    CHANNELS 3 Yrotation Xrotation Zrotation
    JOINT RightToe
    {
     OFFSET 0.000000 -7.579396 17.243563
     CHANNELS 3 Yrotation Xrotation Zrotation
     End Site
     {
      OFFSET 0.000000 -1.500329 6.694466
     }
    }
   }
  }
 }
 JOINT LeftHip
 {
  OFFSET 7.826875 0.019532 0.001973
  CHANNELS 3 Yrotation Xrotation Zrotation
  JOINT LeftKnee
  {
   OFFSET 0.000000 -40.546152 -0.001885
   CHANNELS 3 Yrotation Xrotation Zrotation
   JOINT LeftAnkle
   {
    OFFSET 0.000000 -39.417092 -0.003189
    CHANNELS 3 Yrotation Xrotation Zrotation
    JOINT LeftToe
    {
     OFFSET 0.000000 -7.579396 17.243563
     CHANNELS 3 Yrotation Xrotation Zrotation
     End Site
     {
      OFFSET 0.000000 -1.500329 6.694466
     }
    }
   }
  }
 }
}
MOTION
Frames: 14
Frame Time: 0.008333
0.000000 87.345680 0.000000 0.000000 -5.767889 0.000000 0.000000 11.653876 0.000000 0.000000 -5.885988 0.000000 0.000000 -0.000000 0.000000 0.000000 -0.000000 0.000000 0.000000 12.528808 0.000000 0.000000 0.711711 0.000000 0.000000 -0.000000 0.000000 0.000000 -0.000000 0.000000 2.309063 -0.000000 0.000000 -2.309063 -0.000000 -0.000000 0.000000 -0.000000 0.000000 0.000000 0.000000 0.000000 -2.309063 0.000000 0.000000 2.309063 -0.000000 0.000000 0.000000 8.520374 0.000000 0.000000 1.905768 0.000000 -0.000000 -4.658254 0.000000 0.000000 -0.000000 0.000000 0.000000 8.520374 0.000000 0.000000 1.905768 0.000000 -0.000000 -4.658254 0.000000 0.000000 -0.000000 0.000000
12.575946 88.587943 0.976105 50.498429 -6.552060 2.480134 -1.134718 3.659461 -0.260484 -0.678507 2.033275 0.114311 -0.847632 2.541794 0.139145 -0.678506 2.033276 0.114312 3.021474 18.854331 -2.386613 3.772678 -5.720829 -3.240069 3.659691 -0.707919 -1.810346 -1.163771 -4.351089 88.569902 0.275561 1.244688 -1.636512 -0.108414 -1.857229 -1.925883 -0.098205 -1.123271 -1.247070 -2.400832 -5.356181 -88.383414 1.224865 5.574459 1.510139 1.711958 -1.980926 -1.657426 -5.391109 -2.959207 -8.871747 1.338018 24.388673 0.588261 -2.848514 -12.524130 6.260243 0.008859 -0.859107 -0.258296 0.060825 8.605852 -2.468287 2.333207 0.495576 -0.993271 -3.228511 -2.815360 0.747070 0.102681 1.240104 0.092807
12.607766 88.618357 0.943763 50.417772 -6.633545 2.407469 -1.175575 3.711109 -0.229676 -0.695761 2.065284 0.101546 -0.869269 2.581786 0.123031 -0.695759 2.065285 0.101547 3.048674 18.815546 -2.391472 3.802900 -5.762798 -3.251549 3.648897 -0.716375 -1.781427 -1.159782 -4.385558 88.571399 0.262141 1.301141 -1.631125 -0.179953 -1.817337 -1.875741 -0.145126 -1.164964 -1.285934 -2.564992 -5.481868 -88.170597 1.297725 5.600726 1.516529 1.707592 -1.976252 -1.650559 -5.429717 -3.371318 -8.805477 1.351280 25.143807 0.697460 -3.065222 -12.599926 6.219664 -0.017371 -0.800573 -0.210511 -0.130808 8.861973 -2.456193 2.446339 0.136803 -1.021466 -3.065442 -2.567348 0.775442 0.080871 1.129869 0.088937
12.636690 88.656454 0.911425 50.345732 -6.687467 2.309804 -1.216829 3.748977 -0.183882 -0.711734 2.087680 0.092746 -0.889286 2.609768 0.111895 -0.711733 2.087681 0.092746 3.073965 18.797213 -2.393669 3.830629 -5.782061 -3.259868 3.641478 -0.712442 -1.757586 -1.144738 -4.417839 88.583603 0.239887 1.368376 -1.634155 -0.269044 -1.769398 -1.814180 -0.179711 -1.201446 -1.318090 -2.717380 -5.609805 -87.986191 1.393061 5.611525 1.541945 1.709776 -1.969031 -1.644498 -5.515361 -3.774670 -8.696239 1.375877 25.823951 0.797682 -3.224313 -12.705356 6.130776 -0.035600 -0.693412 -0.156055 -0.310091 9.047558 -2.420894 2.552596 -0.141048 -1.037897 -2.912472 -2.343336 0.799408 0.063732 1.006602 0.084374
12.659818 88.701666 0.883412 50.283312 -6.707637 2.187090 -1.257745 3.766514 -0.122764 -0.727179 2.100545 0.088112 -0.908620 2.625843 0.105988 -0.727178 2.100545 0.088112 3.096489 18.798412 -2.392784 3.854823 -5.779722 -3.264358 3.644605 -0.695841 -1.739901 -1.129664 -4.444763 88.611445 0.213979 1.439702 -1.644717 -0.372003 -1.715110 -1.745943 -0.199760 -1.231885 -1.346373 -2.852248 -5.737898 -87.827479 1.506292 5.608090 1.583227 1.718340 -1.964764 -1.638648 -5.645235 -4.147059 -8.540464 1.407153 26.390612 0.882430 -3.305313 -12.835609 6.039184 -0.044634 -0.551872 -0.134431 -0.468336 9.150359 -2.357216 2.647030 -0.330105 -1.041991 -2.771144 -2.115242 0.817746 0.049961 0.841795 0.077486
12.679600 88.753262 0.860780 50.227550 -6.703225 2.069924 -1.294998 3.769586 -0.075937 -0.742134 2.106311 0.086949 -0.927324 2.633051 0.104437 -0.742134 2.106311 0.086949 3.114684 18.815731 -2.388425 3.873655 -5.759686 -3.264185 3.655341 -0.674035 -1.726476 -1.117825 -4.461636 88.657087 0.186192 1.503717 -1.662008 -0.476845 -1.653378 -1.674598 -0.209429 -1.259903 -1.370190 -2.964148 -5.865292 -87.691609 1.632126 5.589842 1.633977 1.729368 -1.966237 -1.632308 -5.795610 -4.469410 -8.373019 1.451657 26.841667 0.960864 -3.313536 -13.019791 5.961831 -0.045185 -0.373238 -0.151454 -0.603650 9.189587 -2.293372 2.715696 -0.434606 -1.036739 -2.635516 -1.954138 0.833171 0.039699 0.701969 0.068041
12.692586 88.809610 0.848906 50.178001 -6.675788 1.936924 -1.325957 3.758012 -0.020053 -0.755332 2.107319 0.088133 -0.943818 2.634317 0.105840 -0.755332 2.107320 0.088134 3.127548 18.845075 -2.380035 3.885866 -5.726593 -3.258474 3.666788 -0.655695 -1.716538 -1.109352 -4.463945 88.722706 0.159254 1.548653 -1.686412 -0.572182 -1.587016 -1.603800 -0.214453 -1.290410 -1.386847 -3.059679 -5.985848 -87.576743 1.759506 5.541937 1.685698 1.738258 -1.970729 -1.621219 -5.937136 -4.726614 -8.168672 1.518974 27.160591 1.046000 -3.277293 -13.220611 5.885915 -0.039944 -0.194271 -0.191132 -0.706376 9.168064 -2.202374 2.747338 -0.466255 -1.020810 -2.499869 -1.789815 0.841027 0.030992 0.528751 0.055473
12.701902 88.869339 0.847017 50.132931 -6.635830 1.810557 -1.349319 3.740677 0.024754 -0.766740 2.105120 0.091395 -0.958061 2.631576 0.109856 -0.766740 2.105120 0.091395 3.134157 18.882854 -2.368579 3.890648 -5.684453 -3.248013 3.676652 -0.644491 -1.711437 -1.105171 -4.450438 88.806465 0.139117 1.570511 -1.715277 -0.655013 -1.524573 -1.538824 -0.218816 -1.327246 -1.397587 -3.140702 -6.092951 -87.480868 1.874800 5.458697 1.732231 1.744896 -1.979094 -1.602323 -6.031459 -4.922171 -7.946813 1.610263 27.378699 1.134909 -3.243244 -13.446930 5.824000 -0.034829 -0.017001 -0.245203 -0.774004 9.114092 -2.105329 2.745240 -0.444301 -1.000623 -2.373007 -1.691677 0.843980 0.023609 0.394308 0.042054
12.705874 88.930679 0.858098 50.102158 -6.587034 1.668376 -1.368290 3.718224 0.081780 -0.777409 2.101479 0.097273 -0.971367 2.627039 0.117151 -0.777409 2.101479 0.097273 3.132860 18.927059 -2.356125 3.886693 -5.635492 -3.234619 3.681941 -0.637785 -1.711797 -1.109094 -4.424823 88.900359 0.131892 1.574106 -1.741369 -0.724686 -1.477084 -1.482840 -0.228329 -1.370533 -1.405548 -3.188975 -6.185825 -87.403206 1.967339 5.362597 1.766074 1.747908 -1.994701 -1.574158 -6.065008 -5.049248 -7.677861 1.698756 27.488825 1.208801 -3.238790 -13.651844 5.795184 -0.033727 0.131693 -0.315377 -0.807768 9.034035 -1.975179 2.725871 -0.384092 -0.981840 -2.272386 -1.592098 0.839017 0.016631 0.244722 0.030208
12.707806 88.992211 0.880362 50.084816 -6.537280 1.524800 -1.382656 3.696077 0.135330 -0.787151 2.097539 0.106028 -0.983497 2.622135 0.128050 -0.787151 2.097539 0.106028 3.124434 18.975818 -2.342396 3.874757 -5.581773 -3.218170 3.679330 -0.632799 -1.716205 -1.122232 -4.390782 89.001680 0.141812 1.557967 -1.760220 -0.780590 -1.443076 -1.437638 -0.245669 -1.416748 -1.409239 -3.195588 -6.265506 -87.344228 2.029486 5.268339 1.782492 1.744322 -2.018220 -1.538180 -6.026958 -5.109069 -7.380179 1.754544 27.501667 1.255075 -3.273817 -13.829624 5.813694 -0.037161 0.255276 -0.400581 -0.803853 8.947687 -1.826032 2.705197 -0.298641 -0.970580 -2.216738 -1.530409 0.829765 0.010825 0.120783 0.021205
12.709825 89.052428 0.911970 50.075680 -6.488451 1.387279 -1.392499 3.676307 0.176872 -0.795593 2.093187 0.117176 -0.993988 2.616722 0.141948 -0.795593 2.093187 0.117176 3.112025 19.026402 -2.326453 3.857996 -5.526238 -3.198392 3.670552 -0.629064 -1.723631 -1.144863 -4.348119 89.114281 0.172335 1.521872 -1.772802 -0.824476 -1.412980 -1.404180 -0.264499 -1.463950 -1.405367 -3.167055 -6.329543 -87.303695 2.055103 5.178729 1.780559 1.735126 -2.048842 -1.496143 -5.922110 -5.108711 -7.063669 1.767454 27.417205 1.269213 -3.339139 -13.973739 5.867729 -0.043987 0.360869 -0.488644 -0.756774 8.863837 -1.667747 2.689339 -0.199265 -0.967924 -2.212506 -1.518497 0.819226 0.006373 0.038457 0.015042
12.711939 89.109765 0.952617 50.074093 -6.438902 1.246152 -1.399470 3.655442 0.217285 -0.802892 2.087770 0.130265 -1.003040 2.609981 0.158281 -0.802892 2.087769 0.130265 3.096212 19.077452 -2.309225 3.837251 -5.470341 -3.176417 3.657766 -0.623171 -1.734509 -1.173375 -4.295777 89.238609 0.225844 1.470789 -1.780510 -0.859489 -1.388021 -1.379793 -0.280379 -1.507967 -1.392657 -3.106961 -6.375988 -87.282943 2.039465 5.102935 1.759111 1.719360 -2.083078 -1.448089 -5.778672 -5.044231 -6.724013 1.744975 27.216739 1.249322 -3.405109 -14.069207 5.932242 -0.050265 0.447186 -0.561824 -0.674485 8.782002 -1.493441 2.671258 -0.094262 -0.969931 -2.242300 -1.519659 0.803708 0.001840 -0.033340 0.011895
12.715641 89.162836 1.000526 50.080287 -6.388938 1.103965 -1.405266 3.632035 0.256490 -0.809260 2.080305 0.145183 -1.010918 2.600685 0.176912 -0.809260 2.080305 0.145183 3.076655 19.127382 -2.292649 3.812605 -5.415803 -3.154245 3.640774 -0.611007 -1.752319 -1.200664 -4.232119 89.374445 0.303451 1.405511 -1.785895 -0.885856 -1.370124 -1.359865 -0.296406 -1.543236 -1.373374 -3.015240 -6.404535 -87.280176 1.981486 5.049087 1.716192 1.694656 -2.118128 -1.396185 -5.624850 -4.916136 -6.370312 1.695632 26.892821 1.193563 -3.435203 -14.111449 5.989518 -0.053500 0.516476 -0.611537 -0.577708 8.704064 -1.313689 2.642496 0.010964 -0.969569 -2.279258 -1.534123 0.779635 -0.002842 -0.093113 0.012230
12.720149 89.210235 1.054661 50.094316 -6.332237 0.952111 -1.410393 3.602532 0.305194 -0.814753 2.070112 0.160661 -1.017699 2.587980 0.196254 -0.814753 2.070112 0.160661 3.055523 19.172294 -2.276581 3.786330 -5.366915 -3.132207 3.621005 -0.594426 -1.776134 -1.227763 -4.154709 89.521062 0.407361 1.329010 -1.789392 -0.904981 -1.356263 -1.342816 -0.315454 -1.570936 -1.347891 -2.901057 -6.413884 -87.287760 1.883271 5.017266 1.650474 1.663783 -2.154249 -1.345380 -5.474230 -4.729276 -5.994581 1.629309 26.440843 1.106170 -3.419569 -14.085330 6.032583 -0.053461 0.559541 -0.640530 -0.484452 8.620102 -1.124172 2.608782 0.113068 -0.963411 -2.311368 -1.522634 0.747310 -0.008475 -0.175227 0.013446
